<svg width="125" height="35" viewBox="0 0 125 35" fill="none" xmlns="http://www.w3.org/2000/svg">
<g clip-path="url(#clip0_159_223)">
<path d="M24.8308 11.073C24.6177 10.8659 24.3186 10.7718 24.026 10.8199C23.7328 10.8679 23.4796 11.0519 23.3436 11.316C22.8759 12.2247 22.2817 13.0598 21.5827 13.798C21.6524 13.2647 21.6875 12.7283 21.6875 12.1904C21.6875 11.1584 21.5492 10.0963 21.2762 9.03335C20.3789 5.54204 18.0257 2.58948 14.8204 0.932789C14.5414 0.788601 14.2089 0.793664 13.9343 0.946289C13.6597 1.09898 13.4799 1.37891 13.4553 1.69204C13.2054 4.86479 11.5712 7.75129 8.96911 9.61329C8.93468 9.6381 8.90049 9.66323 8.8663 9.68823C8.79549 9.74004 8.72874 9.78904 8.66636 9.83016C8.65661 9.83666 8.64693 9.84329 8.63743 9.8501C7.00093 11.0218 5.65061 12.5837 4.7323 14.3674C3.79917 16.1817 3.32605 18.1286 3.32605 20.1539C3.32605 21.1857 3.46436 22.2477 3.73717 23.3109C5.17686 28.9144 10.2196 32.828 16.0002 32.828C22.9884 32.828 28.6737 27.1424 28.6737 20.1539C28.6737 16.7077 27.3089 13.4827 24.8308 11.073Z" fill="#28A263"/>
<circle cx="15.0588" cy="19.6519" r="3.76471" fill="white"/>
</g>
<path d="M117.673 10.8022V8.75063H117.037V8.29658H118.82V8.75063H118.194V10.8022H117.673ZM119.078 10.8022V8.29658H119.582L120.521 9.54101H120.285L121.197 8.29658H121.701V10.8022H121.18V8.87171L121.388 8.91879L120.423 10.1632H120.356L119.424 8.91879L119.599 8.87171V10.8022H119.078Z" fill="black"/>
<path d="M43.088 29.6161C41.968 29.6161 40.912 29.4161 39.92 29.0161C38.944 28.6001 38.096 28.0161 37.376 27.2641C36.672 26.5121 36.144 25.6241 35.792 24.6001L38.84 23.2321C39.288 24.2081 39.904 24.9761 40.688 25.5361C41.488 26.0961 42.368 26.3761 43.328 26.3761C43.84 26.3761 44.28 26.2961 44.648 26.1361C45.016 25.9761 45.304 25.7601 45.512 25.4881C45.72 25.2001 45.824 24.8641 45.824 24.4801C45.824 24.0641 45.696 23.7121 45.44 23.4241C45.184 23.1201 44.784 22.8801 44.24 22.7041L40.736 21.5521C39.312 21.0881 38.24 20.4321 37.52 19.5841C36.8 18.7201 36.44 17.6881 36.44 16.4881C36.44 15.4321 36.696 14.5041 37.208 13.7041C37.736 12.9041 38.464 12.2801 39.392 11.8321C40.336 11.3841 41.416 11.1601 42.632 11.1601C43.704 11.1601 44.696 11.3441 45.608 11.7121C46.52 12.0801 47.304 12.6001 47.96 13.2721C48.632 13.9441 49.136 14.7521 49.472 15.6961L46.448 17.0641C46.112 16.2321 45.608 15.5841 44.936 15.1201C44.264 14.6401 43.496 14.4001 42.632 14.4001C42.136 14.4001 41.696 14.4801 41.312 14.6401C40.928 14.8001 40.632 15.0321 40.424 15.3361C40.216 15.6241 40.112 15.9601 40.112 16.3441C40.112 16.7601 40.248 17.1281 40.52 17.4481C40.792 17.7521 41.2 17.9921 41.744 18.1681L45.176 19.2721C46.616 19.7361 47.688 20.3841 48.392 21.2161C49.112 22.0481 49.472 23.0641 49.472 24.2641C49.472 25.3041 49.2 26.2321 48.656 27.0481C48.112 27.8481 47.36 28.4801 46.4 28.9441C45.456 29.3921 44.352 29.6161 43.088 29.6161ZM52.1231 29.3281V11.4481H58.9871C60.2191 11.4481 61.3071 11.6641 62.2511 12.0961C63.2111 12.5281 63.9631 13.1681 64.5071 14.0161C65.0511 14.8641 65.3231 15.9121 65.3231 17.1601C65.3231 18.3761 65.0431 19.4081 64.4831 20.2561C63.9391 21.1041 63.1871 21.7521 62.2271 22.2001C61.2831 22.6321 60.2031 22.8481 58.9871 22.8481H55.8431V29.3281H52.1231ZM55.8431 19.6081H59.0111C59.5391 19.6081 59.9951 19.5041 60.3791 19.2961C60.7631 19.0881 61.0591 18.8001 61.2671 18.4321C61.4911 18.0641 61.6031 17.6401 61.6031 17.1601C61.6031 16.6641 61.4911 16.2321 61.2671 15.8641C61.0591 15.4961 60.7631 15.2081 60.3791 15.0001C59.9951 14.7921 59.5391 14.6881 59.0111 14.6881H55.8431V19.6081ZM64.9593 29.3281L71.0073 11.4481H75.9513L81.9993 29.3281H77.9433L76.7433 25.6801H70.1913L68.9913 29.3281H64.9593ZM71.2233 22.4401H75.7113L72.9753 13.9921H73.9833L71.2233 22.4401ZM83.8574 29.3281V11.4481H90.6974C91.9294 11.4481 93.0174 11.6641 93.9614 12.0961C94.9214 12.5281 95.6734 13.1681 96.2174 14.0161C96.7614 14.8641 97.0334 15.9121 97.0334 17.1601C97.0334 18.3761 96.7534 19.4161 96.1934 20.2801C95.6334 21.1281 94.8814 21.7681 93.9374 22.2001L98.0174 29.3281H93.8414L89.4254 21.4321L91.8254 22.8481H87.5774V29.3281H83.8574ZM87.5774 19.6081H90.7214C91.2494 19.6081 91.7054 19.5041 92.0894 19.2961C92.4734 19.0881 92.7694 18.8001 92.9774 18.4321C93.2014 18.0641 93.3134 17.6401 93.3134 17.1601C93.3134 16.6641 93.2014 16.2321 92.9774 15.8641C92.7694 15.4961 92.4734 15.2081 92.0894 15.0001C91.7054 14.7921 91.2494 14.6881 90.7214 14.6881H87.5774V19.6081ZM99.8652 29.3281V11.4481H103.585V20.4001L102.553 20.0401L109.705 11.4481H114.361L107.281 19.9921L107.497 17.3521L114.505 29.3281H110.161L105.793 21.7681L103.585 24.4321V29.3281H99.8652Z" fill="black"/>
<defs>
<clipPath id="clip0_159_223">
<rect width="32" height="32" fill="white" transform="translate(0 0.828125)"/>
</clipPath>
</defs>
</svg>
