<svg width="16" height="17" viewBox="0 0 16 17" fill="none" xmlns="http://www.w3.org/2000/svg">
<g clip-path="url(#clip0_216_274)">
<path fill-rule="evenodd" clip-rule="evenodd" d="M1.94873 14.2655V12.0622L9.15576 4.85517L11.3591 7.0585L4.15205 14.2655H1.94873ZM12.0386 6.37901L13.281 5.13662L11.0776 2.93329L9.83524 4.17569L12.0386 6.37901ZM10.7379 1.91406L1.12852 11.5234L0.987793 11.8632V14.746L1.46826 15.2265H4.35107L4.69081 15.0857L14.3002 5.47636V4.79688L11.4174 1.91406H10.7379Z" fill="white"/>
<path d="M5.97266 15.2266H13.6602M11.7383 4.65625L12.6992 5.61718M13.1797 2.2539C13.3691 2.44311 13.5194 2.6678 13.6219 2.91513C13.7245 3.16245 13.7773 3.42757 13.7773 3.69531C13.7773 3.96305 13.7245 4.22816 13.6219 4.47549C13.5194 4.72282 13.3691 4.94751 13.1797 5.13672L4.05078 14.2656L0.207031 15.2266L1.16797 11.4366L10.3007 2.25775C10.6607 1.89602 11.1435 1.68288 11.6533 1.66063C12.1632 1.63838 12.6627 1.80864 13.0528 2.13763L13.1797 2.2539Z" stroke="#9EA099" stroke-width="0.960938" stroke-linecap="round" stroke-linejoin="round"/>
</g>
<defs>
<clipPath id="clip0_216_274">
<rect width="15.375" height="15.375" fill="white" transform="translate(0.0268555 0.8125)"/>
</clipPath>
</defs>
</svg>
