<svg width="36" height="26" viewBox="0 0 36 26" fill="none" xmlns="http://www.w3.org/2000/svg">
<g clip-path="url(#clip0_61_204)">
<path fill-rule="evenodd" clip-rule="evenodd" d="M17.9998 1.53711C14.8864 1.53711 14.4966 1.54985 13.274 1.60589C12.0538 1.66193 11.2202 1.85552 10.4911 2.1389C9.72628 2.4267 9.03346 2.87786 8.46092 3.46093C7.87797 4.03355 7.42683 4.72635 7.1389 5.49109C6.85552 6.22024 6.66129 7.05383 6.60589 8.2746C6.55048 9.49665 6.53711 9.88574 6.53711 12.9998C6.53711 16.1138 6.54985 16.5029 6.60589 17.7256C6.66192 18.9457 6.85552 19.7793 7.1389 20.5085C7.4267 21.2733 7.87786 21.9661 8.46092 22.5386C9.09774 23.1754 9.73774 23.5677 10.4911 23.8607C11.2202 24.144 12.0538 24.3383 13.274 24.3937C14.4966 24.4491 14.8864 24.4624 17.9998 24.4624C21.1131 24.4624 21.5029 24.4497 22.7255 24.3937C23.9457 24.3376 24.7793 24.144 25.5084 23.8607C26.2732 23.5728 26.966 23.1217 27.5386 22.5386C28.1754 21.9018 28.5677 21.2618 28.8606 20.5085C29.144 19.7793 29.3382 18.9457 29.3936 17.7256C29.449 16.5029 29.4624 16.1132 29.4624 12.9998C29.4624 9.88638 29.4497 9.49665 29.3936 8.27397C29.3376 7.05383 29.144 6.22024 28.8606 5.49109C28.5728 4.72629 28.1216 4.03347 27.5386 3.46093C26.966 2.87798 26.2732 2.42683 25.5084 2.1389C24.7793 1.85552 23.9457 1.66129 22.7249 1.60589C21.5029 1.55049 21.1138 1.53711 17.9998 1.53711ZM17.9992 16.8256C17.497 16.8256 16.9996 16.7267 16.5356 16.5345C16.0715 16.3423 15.6499 16.0605 15.2947 15.7054C14.9396 15.3502 14.6579 14.9286 14.4657 14.4646C14.2734 14.0005 14.1745 13.5032 14.1745 13.0009C14.1745 12.4986 14.2734 12.0013 14.4657 11.5373C14.6579 11.0732 14.9396 10.6516 15.2947 10.2964C15.6499 9.94125 16.0715 9.65952 16.5356 9.46731C16.9996 9.2751 17.497 9.17617 17.9992 9.17617C19.0136 9.17617 19.9864 9.57913 20.7037 10.2964C21.421 11.0137 21.8239 11.9865 21.8239 13.0009C21.8239 14.0153 21.421 14.9881 20.7037 15.7054C19.9864 16.4227 19.0136 16.8256 17.9992 16.8256ZM17.9992 7.10908C16.4366 7.10908 14.938 7.72982 13.8331 8.83474C12.7282 9.93967 12.1074 11.4383 12.1074 13.0009C12.1074 14.5635 12.7282 16.0621 13.8331 17.167C14.938 18.272 16.4366 18.8927 17.9992 18.8927C19.5618 18.8927 21.0604 18.272 22.1654 17.167C23.2703 16.0621 23.891 14.5635 23.891 13.0009C23.891 11.4383 23.2703 9.93967 22.1654 8.83474C21.0604 7.72982 19.5618 7.10908 17.9992 7.10908ZM25.6053 7.00209C25.6053 7.37146 25.4586 7.7257 25.1974 7.98689C24.9362 8.24807 24.582 8.3948 24.2126 8.3948C23.8432 8.3948 23.489 8.24807 23.2278 7.98689C22.9666 7.7257 22.8199 7.37146 22.8199 7.00209C22.8199 6.63272 22.9666 6.27848 23.2278 6.01729C23.489 5.75611 23.8432 5.60938 24.2126 5.60938C24.582 5.60938 24.9362 5.75611 25.1974 6.01729C25.4586 6.27848 25.6053 6.63272 25.6053 7.00209Z" fill="#1E2330"/>
</g>
<defs>
<clipPath id="clip0_61_204">
<rect width="36" height="26" fill="white"/>
</clipPath>
</defs>
</svg>
