<svg width="42" height="42" viewBox="0 0 42 42" fill="none" xmlns="http://www.w3.org/2000/svg">
<g clip-path="url(#clip0_101_37)">
<path d="M32.0325 13.4769C31.7539 13.2062 31.363 13.0831 30.9805 13.1461C30.5972 13.2087 30.2663 13.4493 30.0885 13.7946C29.4771 14.9824 28.7004 16.074 27.7867 17.0389C27.8778 16.3419 27.9236 15.6406 27.9236 14.9375C27.9236 13.5885 27.7428 12.2001 27.3861 10.8107C26.213 6.24691 23.1371 2.38737 18.9471 0.221775C18.5823 0.0332959 18.1477 0.0399135 17.7888 0.239422C17.4299 0.439013 17.1948 0.804942 17.1627 1.21425C16.836 5.36162 14.6998 9.1348 11.2984 11.5688C11.2534 11.6012 11.2087 11.6341 11.164 11.6667C11.0714 11.7345 10.9842 11.7985 10.9026 11.8523C10.8899 11.8608 10.8772 11.8694 10.8648 11.8783C8.72561 13.4099 6.9605 15.4516 5.7601 17.7832C4.54034 20.1548 3.92188 22.6998 3.92188 25.3473C3.92188 26.696 4.10267 28.0843 4.45929 29.474C6.34123 36.7989 12.933 41.9147 20.4894 41.9147C29.6242 41.9147 37.0559 34.4825 37.0559 25.3473C37.0559 20.8424 35.2719 16.6268 32.0325 13.4769Z" fill="#28A263"/>
<circle cx="19.6829" cy="24.6926" r="4.92116" fill="white"/>
</g>
<defs>
<clipPath id="clip0_101_37">
<rect width="41.8298" height="41.8298" fill="white" transform="translate(0 0.0849609)"/>
</clipPath>
</defs>
</svg>
