<svg width="122" height="18" viewBox="0 0 122 18" fill="none" xmlns="http://www.w3.org/2000/svg">
<path d="M0 15.24H2.16688V2.48L7.19566 15.24H9.79181L14.8002 2.52V15.24H16.967V0H13.5941L8.50396 13.18L3.39341 0H0V15.24ZM22.6847 15.54C24.4836 15.54 25.9963 14.76 26.9776 13.46V15.24H29.0627V8.98C29.0627 5.86 27.0389 3.98 23.9521 3.98C21.172 3.98 19.2095 5.66 18.8825 7.66H21.0289C21.3151 6.48 22.3576 5.82 23.7886 5.82C25.8124 5.82 26.9162 6.9 26.9776 8.8H23.2775C20.3134 8.8 18.5554 10.04 18.5554 12.28C18.5554 14.3 20.1294 15.54 22.6847 15.54ZM20.62 12.12C20.62 11.06 21.5195 10.48 23.6659 10.48H26.9162C26.5687 12.54 24.7698 13.74 22.9505 13.74C21.5399 13.74 20.62 13.1 20.62 12.12ZM31.2796 15.24H33.3647V9.94C33.3647 7.48 34.4277 5.9 36.4311 5.9C37.0648 5.9 37.6371 6.1 37.9029 6.34V4.28C37.4941 4.08 37.1056 3.98 36.4106 3.98C35.1432 3.98 33.9984 4.7 33.3647 5.82V4.28H31.2796V15.24ZM39.2797 15.24H41.3648V12.44L43.7565 10.06L47.4361 15.24H49.8483L45.1057 8.72L49.603 4.28H46.8842L41.3648 9.8V0H39.2797V15.24ZM55.6263 15.54C58.2838 15.54 60.4915 13.82 60.839 11.64H58.713C58.3451 12.86 57.0981 13.68 55.6263 13.68C53.5207 13.68 52.1715 12.36 52.008 10.22H60.9617V9.84C60.9617 5.86 58.3246 3.98 55.4423 3.98C52.1306 3.98 49.9842 6.5 49.9842 9.76C49.9842 13.26 52.2329 15.54 55.6263 15.54ZM52.1307 8.52C52.5395 6.9 53.766 5.82 55.4423 5.82C57.2003 5.82 58.4473 6.88 58.713 8.52H52.1307ZM66.2429 15.54C67.081 15.54 67.8987 15.22 68.2871 14.74V13.06C67.8987 13.42 67.3672 13.66 66.7744 13.66C65.8545 13.66 65.4866 13.18 65.4866 12.02V5.98H68.4098V4.28H65.4866V1.52H63.4015V4.28H61.5208V5.98H63.4015V12.48C63.4015 14.4 64.4644 15.54 66.2429 15.54ZM75.7158 15.54C78.8844 15.54 81.0308 13.04 81.0308 9.74C81.0308 6.44 78.8844 3.98 75.7158 3.98C74.1418 3.98 72.8539 4.6 71.934 5.64V4.28H69.8489V20H71.934V13.86C72.8539 14.9 74.1418 15.54 75.7158 15.54ZM71.934 9.74C71.934 7.44 73.3445 5.8 75.4501 5.8C77.5761 5.8 79.0479 7.5 79.0479 9.74C79.0479 12 77.5761 13.7 75.4501 13.7C73.3445 13.7 71.934 12.06 71.934 9.74ZM82.8594 15.24H84.9445V0H82.8594V15.24ZM90.9647 15.54C92.7636 15.54 94.2763 14.76 95.2575 13.46V15.24H97.3426V8.98C97.3426 5.86 95.3189 3.98 92.2321 3.98C89.452 3.98 87.4895 5.66 87.1624 7.66H89.3089C89.5951 6.48 90.6376 5.82 92.0686 5.82C94.0923 5.82 95.1962 6.9 95.2575 8.8H91.5575C88.5934 8.8 86.8354 10.04 86.8354 12.28C86.8354 14.3 88.4094 15.54 90.9647 15.54ZM88.9 12.12C88.9 11.06 89.7995 10.48 91.9459 10.48H95.1962C94.8487 12.54 93.0498 13.74 91.2304 13.74C89.8199 13.74 88.9 13.1 88.9 12.12ZM104.59 15.54C107.289 15.54 109.353 13.88 109.844 11.46H107.718C107.371 12.84 106.124 13.68 104.59 13.68C102.526 13.68 100.993 12.06 100.993 9.74C100.993 7.46 102.505 5.82 104.59 5.82C106.083 5.82 107.33 6.64 107.698 7.98H109.844C109.353 5.54 107.227 3.98 104.59 3.98C101.299 3.98 98.9893 6.48 98.9893 9.74C98.9893 13.16 101.401 15.54 104.59 15.54ZM116.665 15.54C119.322 15.54 121.53 13.82 121.877 11.64H119.751C119.383 12.86 118.136 13.68 116.665 13.68C114.559 13.68 113.21 12.36 113.046 10.22H122V9.84C122 5.86 119.363 3.98 116.481 3.98C113.169 3.98 111.023 6.5 111.023 9.76C111.023 13.26 113.271 15.54 116.665 15.54ZM113.169 8.52C113.578 6.9 114.804 5.82 116.481 5.82C118.239 5.82 119.486 6.88 119.751 8.52H113.169Z" fill="black"/>
</svg>
