<svg width="16" height="13" viewBox="0 0 16 13" fill="none" xmlns="http://www.w3.org/2000/svg">
<g clip-path="url(#clip0_198_1557)">
<path d="M0.945949 7.15642C1.78675 8.62298 4.15635 12.033 8.00035 12.033C11.8507 12.033 14.2163 8.62136 15.0563 7.15642C15.1708 6.95728 15.2311 6.73081 15.2309 6.50022C15.2308 6.26963 15.1703 6.04323 15.0555 5.84423C14.2155 4.37848 11.8475 0.966797 8.00035 0.966797C4.15315 0.966797 1.78595 4.37686 0.945949 5.84261C0.831064 6.04187 0.770508 6.26861 0.770508 6.49952C0.770508 6.73042 0.831064 6.95716 0.945949 7.15642Z" stroke="black" stroke-opacity="0.75" stroke-width="0.8" stroke-linejoin="round"/>
<path d="M8.00039 8.63281C8.55735 8.63281 9.09149 8.40811 9.48531 8.00813C9.87914 7.60815 10.1004 7.06566 10.1004 6.5C10.1004 5.93434 9.87914 5.39185 9.48531 4.99187C9.09149 4.59189 8.55735 4.36719 8.00039 4.36719C7.44344 4.36719 6.90929 4.59189 6.51547 4.99187C6.12164 5.39185 5.90039 5.93434 5.90039 6.5C5.90039 7.06566 6.12164 7.60815 6.51547 8.00813C6.90929 8.40811 7.44344 8.63281 8.00039 8.63281Z" stroke="black" stroke-opacity="0.75" stroke-width="0.8" stroke-linejoin="round"/>
</g>
<defs>
<clipPath id="clip0_198_1557">
<rect width="16" height="13" fill="white"/>
</clipPath>
</defs>
</svg>
