<svg width="17" height="22" viewBox="0 0 17 22" fill="none" xmlns="http://www.w3.org/2000/svg">
<path fill-rule="evenodd" clip-rule="evenodd" d="M13.869 6.81169C14.065 6.77944 14.2654 6.84251 14.4082 6.98128C16.0685 8.59573 16.9829 10.7565 16.9829 13.0655C16.9829 17.7478 13.1738 21.5571 8.49171 21.5571C4.61869 21.5571 1.24004 18.935 0.275454 15.1806C0.0926694 14.4683 0 13.7567 0 13.0655C0 11.7085 0.316994 10.4041 0.942188 9.18847C1.55746 7.9934 2.46217 6.94694 3.55862 6.16191C3.56499 6.15735 3.57148 6.15291 3.57801 6.14855C3.61842 6.12191 3.66157 6.09034 3.70727 6.05689L3.71197 6.05346C3.71658 6.05009 3.72118 6.04671 3.72579 6.04334C3.7441 6.02994 3.76242 6.01653 3.78085 6.00325C5.52423 4.75571 6.61918 2.82175 6.7866 0.69601C6.8031 0.486216 6.92357 0.298658 7.10753 0.196357C7.29149 0.0940983 7.51426 0.0907064 7.70123 0.187312C9.84879 1.29729 11.4254 3.27551 12.0266 5.61469C12.2095 6.32686 12.3022 7.03844 12.3022 7.72992C12.3022 8.0903 12.2787 8.44971 12.232 8.80699C12.7003 8.3124 13.0984 7.75291 13.4118 7.14409C13.5029 6.96713 13.6725 6.8438 13.869 6.81169ZM8 17.1172C9.65685 17.1172 11 15.5502 11 13.6172C11 11.6842 9.65685 10.1172 8 10.1172C6.34315 10.1172 5 11.6842 5 13.6172C5 15.5502 6.34315 17.1172 8 17.1172Z" fill="white" fill-opacity="0.72"/>
</svg>
