<svg width="67" height="16" viewBox="0 0 67 16" fill="none" xmlns="http://www.w3.org/2000/svg">
<path d="M6.57008 15.74C5.63675 15.74 4.75675 15.5733 3.93008 15.24C3.11674 14.8933 2.41008 14.4067 1.81008 13.78C1.22341 13.1533 0.783412 12.4133 0.490078 11.56L3.03008 10.42C3.40341 11.2333 3.91675 11.8733 4.57008 12.34C5.23674 12.8067 5.97008 13.04 6.77008 13.04C7.19674 13.04 7.56341 12.9733 7.87008 12.84C8.17675 12.7067 8.41675 12.5267 8.59008 12.3C8.76341 12.06 8.85008 11.78 8.85008 11.46C8.85008 11.1133 8.74341 10.82 8.53008 10.58C8.31675 10.3267 7.98341 10.1267 7.53008 9.98L4.61008 9.02C3.42341 8.63333 2.53008 8.08667 1.93008 7.38C1.33008 6.66 1.03008 5.8 1.03008 4.8C1.03008 3.92 1.24341 3.14667 1.67008 2.48C2.11008 1.81333 2.71674 1.29333 3.49008 0.919999C4.27675 0.546666 5.17675 0.359999 6.19008 0.359999C7.08341 0.359999 7.91008 0.513333 8.67008 0.819999C9.43008 1.12667 10.0834 1.56 10.6301 2.12C11.1901 2.68 11.6101 3.35333 11.8901 4.14L9.37008 5.28C9.09008 4.58667 8.67008 4.04667 8.11008 3.66C7.55008 3.26 6.91008 3.06 6.19008 3.06C5.77674 3.06 5.41008 3.12667 5.09008 3.26C4.77008 3.39333 4.52341 3.58667 4.35008 3.84C4.17675 4.08 4.09008 4.36 4.09008 4.68C4.09008 5.02667 4.20341 5.33333 4.43008 5.6C4.65674 5.85333 4.99675 6.05333 5.45008 6.2L8.31008 7.12C9.51008 7.50667 10.4034 8.04667 10.9901 8.74C11.5901 9.43333 11.8901 10.28 11.8901 11.28C11.8901 12.1467 11.6634 12.92 11.2101 13.6C10.7567 14.2667 10.1301 14.7933 9.33008 15.18C8.54341 15.5533 7.62341 15.74 6.57008 15.74ZM14.0993 15.5V0.599999H19.8193C20.846 0.599999 21.7526 0.779999 22.5393 1.14C23.3393 1.5 23.966 2.03333 24.4193 2.74C24.8726 3.44667 25.0993 4.32 25.0993 5.36C25.0993 6.37333 24.866 7.23333 24.3993 7.94C23.946 8.64667 23.3193 9.18667 22.5193 9.56C21.7326 9.92 20.8326 10.1 19.8193 10.1H17.1993V15.5H14.0993ZM17.1993 7.4H19.8393C20.2793 7.4 20.6593 7.31333 20.9793 7.14C21.2993 6.96667 21.546 6.72667 21.7193 6.42C21.906 6.11333 21.9993 5.76 21.9993 5.36C21.9993 4.94667 21.906 4.58667 21.7193 4.28C21.546 3.97333 21.2993 3.73333 20.9793 3.56C20.6593 3.38667 20.2793 3.3 19.8393 3.3H17.1993V7.4ZM24.7962 15.5L29.8362 0.599999H33.9562L38.9962 15.5H35.6162L34.6162 12.46H29.1562L28.1562 15.5H24.7962ZM30.0162 9.76H33.7562L31.4762 2.72H32.3162L30.0162 9.76ZM40.5446 15.5V0.599999H46.2446C47.2713 0.599999 48.1779 0.779999 48.9646 1.14C49.7646 1.5 50.3913 2.03333 50.8446 2.74C51.2979 3.44667 51.5246 4.32 51.5246 5.36C51.5246 6.37333 51.2913 7.24 50.8246 7.96C50.3579 8.66667 49.7313 9.2 48.9446 9.56L52.3446 15.5H48.8646L45.1846 8.92L47.1846 10.1H43.6446V15.5H40.5446ZM43.6446 7.4H46.2646C46.7046 7.4 47.0846 7.31333 47.4046 7.14C47.7246 6.96667 47.9713 6.72667 48.1446 6.42C48.3313 6.11333 48.4246 5.76 48.4246 5.36C48.4246 4.94667 48.3313 4.58667 48.1446 4.28C47.9713 3.97333 47.7246 3.73333 47.4046 3.56C47.0846 3.38667 46.7046 3.3 46.2646 3.3H43.6446V7.4ZM53.8845 15.5V0.599999H56.9845V8.06L56.1245 7.76L62.0845 0.599999H65.9645L60.0645 7.72L60.2445 5.52L66.0845 15.5H62.4645L58.8245 9.2L56.9845 11.42V15.5H53.8845Z" fill="black"/>
</svg>
