<svg width="36" height="26" viewBox="0 0 36 26" fill="none" xmlns="http://www.w3.org/2000/svg">
<g clip-path="url(#clip0_61_210)">
<path d="M24.5509 4.20318C23.6117 3.12641 23.047 1.72239 23.047 0.1875H21.8701C22.1732 1.86518 23.1719 3.3049 24.5509 4.20318Z" fill="#1E2330"/>
<path d="M13.6572 12.8778C11.6184 12.8778 9.95996 14.5376 9.95996 16.5782C9.95996 18.0001 10.7684 19.2375 11.9453 19.8562C11.5054 19.2494 11.2439 18.5058 11.2439 17.6966C11.2439 15.6561 12.9023 13.9962 14.9412 13.9962C15.3216 13.9962 15.6901 14.0616 16.0349 14.1688V9.67118C15.6782 9.62353 15.3157 9.59375 14.9412 9.59375C14.8758 9.59375 14.8164 9.59971 14.751 9.59971V13.0503C14.4003 12.9432 14.0377 12.8778 13.6572 12.8778Z" fill="#1E2330"/>
<path d="M27.8815 6.17969V9.60046C25.5989 9.60046 23.4828 8.86876 21.759 7.63129V16.5849C21.759 21.0527 18.1271 24.6937 13.6571 24.6937C11.9332 24.6937 10.3283 24.1463 9.01465 23.2242C10.4947 24.8126 12.6049 25.8121 14.941 25.8121C19.4051 25.8121 23.0429 22.1771 23.0429 17.7033V8.74974C24.7667 9.98721 26.8828 10.719 29.1654 10.719V6.31658C28.7196 6.31658 28.2916 6.26893 27.8815 6.17969Z" fill="#1E2330"/>
<path d="M21.7548 16.5835V7.62991C23.4787 8.86738 25.5948 9.59908 27.8774 9.59908V6.17831C26.5578 5.89877 25.3987 5.18484 24.5427 4.20318C23.1636 3.3049 22.171 1.86518 21.8559 0.1875H18.6342L18.6282 17.8388C18.5569 19.8139 16.9282 21.4024 14.9369 21.4024C13.7005 21.4024 12.6127 20.7896 11.9351 19.8615C10.7581 19.2368 9.94971 18.0054 9.94971 16.5835C9.94971 14.543 11.6081 12.8831 13.647 12.8831C14.0274 12.8831 14.396 12.9485 14.7407 13.0556V9.60504C10.3658 9.70024 6.83496 13.2936 6.83496 17.702C6.83496 19.8318 7.6612 21.7712 9.01053 23.2228C10.3242 24.1449 11.9291 24.6923 13.6529 24.6923C18.117 24.6923 21.7548 21.0514 21.7548 16.5835Z" fill="#1E2330"/>
</g>
<defs>
<clipPath id="clip0_61_210">
<rect width="36" height="26" fill="white"/>
</clipPath>
</defs>
</svg>
